<?xml version="1.0" encoding="UTF-8" standalone="no"?>
<!DOCTYPE svg PUBLIC "-//W3C//DTD SVG 1.1//EN" "http://www.w3.org/Graphics/SVG/1.1/DTD/svg11.dtd">
<svg xmlns="http://www.w3.org/2000/svg" xmlns:xlink="http://www.w3.org/1999/xlink" version="1.1" width="409.116pt" height="263.606pt" viewBox="0 0 409.116 263.606">
<g enable-background="new">
<path transform="matrix(1,0,0,-1,-39.776,-23.710999)" d="M 100.49942 -95.32874 L 100.49942 -138.5547 C 100.49942 -144.98069 88.79068 -150.18874 74.34715 -150.18874 C 59.90361 -150.18874 48.19489 -144.98069 48.19489 -138.5547 L 48.19489 -95.32874 M 100.49942 -95.32874 C 100.49942 -101.75473 88.79068 -106.96275 74.34715 -106.96275 C 59.90361 -106.96275 48.19489 -101.75473 48.19489 -95.32874 C 48.19489 -88.89528 59.90361 -83.68726 74.34715 -83.68726 C 88.79068 -83.68726 100.49942 -88.89528 100.49942 -95.32874 Z " fill="#f8be8c"/>
<path transform="matrix(1,0,0,-1,-39.776,-23.710999)" stroke-width=".3985" stroke-linecap="butt" stroke-miterlimit="10" stroke-linejoin="miter" fill="none" stroke="#ff8500" d="M 100.49942 -95.32874 L 100.49942 -138.5547 C 100.49942 -144.98069 88.79068 -150.18874 74.34715 -150.18874 C 59.90361 -150.18874 48.19489 -144.98069 48.19489 -138.5547 L 48.19489 -95.32874 M 100.49942 -95.32874 C 100.49942 -101.75473 88.79068 -106.96275 74.34715 -106.96275 C 59.90361 -106.96275 48.19489 -101.75473 48.19489 -95.32874 C 48.19489 -88.89528 59.90361 -83.68726 74.34715 -83.68726 C 88.79068 -83.68726 100.49942 -88.89528 100.49942 -95.32874 Z "/>
<path transform="matrix(1,0,0,-1,-39.776,-23.710999)" stroke-width=".3985" stroke-linecap="butt" stroke-miterlimit="10" stroke-linejoin="miter" fill="none" stroke="#000000" d="M 123.28926 -23.91064 L 175.5938 -23.91064 L 175.5938 -53.79895 L 123.28926 -53.79895 Z "/>
<path transform="matrix(1,0,0,-1,-39.776,-23.710999)" stroke-width=".3985" stroke-linecap="butt" stroke-miterlimit="10" stroke-linejoin="miter" fill="none" stroke="#000000" d="M 39.9756 -92.65375 C 39.9756 -83.57516 47.33559 -76.21518 56.41417 -76.21518 L 240.97446 -76.21518 C 250.05303 -76.21518 257.41304 -83.57516 257.41304 -92.65375 L 257.41304 -141.96945 C 257.41304 -151.048 250.05303 -158.40802 240.97446 -158.40802 L 56.41417 -158.40802 C 47.33559 -158.40802 39.9756 -151.048 39.9756 -141.96945 Z "/>
<path transform="matrix(1,0,0,-1,-39.776,-23.710999)" stroke-width=".3985" stroke-linecap="butt" stroke-dasharray="4.48325,4.48325" stroke-miterlimit="10" stroke-linejoin="miter" fill="none" stroke="#000000" d="M 149.06792 -53.79895 L 149.06792 -76.96239 "/>
<path transform="matrix(1,0,0,-1,-39.776,-23.710999)" d="M 174.47298 -95.32874 L 174.47298 -138.5547 C 174.47298 -144.98069 162.76424 -150.18874 148.32071 -150.18874 C 133.87717 -150.18874 122.16844 -144.98069 122.16844 -138.5547 L 122.16844 -95.32874 M 174.47298 -95.32874 C 174.47298 -101.75473 162.76424 -106.96275 148.32071 -106.96275 C 133.87717 -106.96275 122.16844 -101.75473 122.16844 -95.32874 C 122.16844 -88.89528 133.87717 -83.68726 148.32071 -83.68726 C 162.76424 -83.68726 174.47298 -88.89528 174.47298 -95.32874 Z " fill="#f8be8c"/>
<path transform="matrix(1,0,0,-1,-39.776,-23.710999)" stroke-width=".3985" stroke-linecap="butt" stroke-miterlimit="10" stroke-linejoin="miter" fill="none" stroke="#ff8500" d="M 174.47298 -95.32874 L 174.47298 -138.5547 C 174.47298 -144.98069 162.76424 -150.18874 148.32071 -150.18874 C 133.87717 -150.18874 122.16844 -144.98069 122.16844 -138.5547 L 122.16844 -95.32874 M 174.47298 -95.32874 C 174.47298 -101.75473 162.76424 -106.96275 148.32071 -106.96275 C 133.87717 -106.96275 122.16844 -101.75473 122.16844 -95.32874 C 122.16844 -88.89528 133.87717 -83.68726 148.32071 -83.68726 C 162.76424 -83.68726 174.47298 -88.89528 174.47298 -95.32874 Z "/>
<path transform="matrix(1,0,0,-1,-39.776,-23.710999)" d="M 249.94095 -95.32874 L 249.94095 -138.5547 C 249.94095 -144.98069 238.23221 -150.18874 223.78868 -150.18874 C 209.34514 -150.18874 197.63642 -144.98069 197.63642 -138.5547 L 197.63642 -95.32874 M 249.94095 -95.32874 C 249.94095 -101.75473 238.23221 -106.96275 223.78868 -106.96275 C 209.34514 -106.96275 197.63642 -101.75473 197.63642 -95.32874 C 197.63642 -88.89528 209.34514 -83.68726 223.78868 -83.68726 C 238.23221 -83.68726 249.94095 -88.89528 249.94095 -95.32874 Z " fill="#f8be8c"/>
<path transform="matrix(1,0,0,-1,-39.776,-23.710999)" stroke-width=".3985" stroke-linecap="butt" stroke-miterlimit="10" stroke-linejoin="miter" fill="none" stroke="#ff8500" d="M 249.94095 -95.32874 L 249.94095 -138.5547 C 249.94095 -144.98069 238.23221 -150.18874 223.78868 -150.18874 C 209.34514 -150.18874 197.63642 -144.98069 197.63642 -138.5547 L 197.63642 -95.32874 M 249.94095 -95.32874 C 249.94095 -101.75473 238.23221 -106.96275 223.78868 -106.96275 C 209.34514 -106.96275 197.63642 -101.75473 197.63642 -95.32874 C 197.63642 -88.89528 209.34514 -83.68726 223.78868 -83.68726 C 238.23221 -83.68726 249.94095 -88.89528 249.94095 -95.32874 Z "/>
<path transform="matrix(1,0,0,-1,-39.776,-23.710999)" stroke-width=".3985" stroke-linecap="butt" stroke-miterlimit="10" stroke-linejoin="miter" fill="none" stroke="#000000" d="M 294.3998 -23.91064 L 346.70436 -23.91064 L 346.70436 -53.79895 L 294.3998 -53.79895 Z "/>
<path transform="matrix(1,0,0,-1,-39.776,-23.710999)" stroke-width=".3985" stroke-linecap="butt" stroke-dasharray="4.48325,4.48325" stroke-miterlimit="10" stroke-linejoin="miter" fill="none" stroke="#000000" d="M 320.92567 -53.79895 L 320.92567 -76.96239 "/>
<path transform="matrix(1,0,0,-1,-39.776,-23.710999)" d="M 347.07795 -88.60387 L 347.07795 -131.82984 C 347.07795 -138.25582 335.3692 -143.46387 320.92567 -143.46387 C 306.48213 -143.46387 294.7734 -138.25582 294.7734 -131.82984 L 294.7734 -88.60387 M 347.07795 -88.60387 C 347.07795 -95.02986 335.3692 -100.23788 320.92567 -100.23788 C 306.48213 -100.23788 294.7734 -95.02986 294.7734 -88.60387 C 294.7734 -82.17041 306.48213 -76.96239 320.92567 -76.96239 C 335.3692 -76.96239 347.07795 -82.17041 347.07795 -88.60387 Z " fill="#f8be8c"/>
<path transform="matrix(1,0,0,-1,-39.776,-23.710999)" stroke-width=".3985" stroke-linecap="butt" stroke-miterlimit="10" stroke-linejoin="miter" fill="none" stroke="#ff8500" d="M 347.07795 -88.60387 L 347.07795 -131.82984 C 347.07795 -138.25582 335.3692 -143.46387 320.92567 -143.46387 C 306.48213 -143.46387 294.7734 -138.25582 294.7734 -131.82984 L 294.7734 -88.60387 M 347.07795 -88.60387 C 347.07795 -95.02986 335.3692 -100.23788 320.92567 -100.23788 C 306.48213 -100.23788 294.7734 -95.02986 294.7734 -88.60387 C 294.7734 -82.17041 306.48213 -76.96239 320.92567 -76.96239 C 335.3692 -76.96239 347.07795 -82.17041 347.07795 -88.60387 Z "/>
<path transform="matrix(1,0,0,-1,-39.776,-23.710999)" stroke-width=".3985" stroke-linecap="butt" stroke-miterlimit="10" stroke-linejoin="miter" fill="none" stroke="#000000" d="M 391.5368 -23.91064 L 443.84135 -23.91064 L 443.84135 -53.79895 L 391.5368 -53.79895 Z "/>
<path transform="matrix(1,0,0,-1,-39.776,-23.710999)" stroke-width=".3985" stroke-linecap="butt" stroke-dasharray="4.48325,4.48325" stroke-miterlimit="10" stroke-linejoin="miter" fill="none" stroke="#000000" d="M 418.06269 -53.79895 L 418.06269 -76.96239 "/>
<path transform="matrix(1,0,0,-1,-39.776,-23.710999)" d="M 440.4789 -87.85666 L 440.4789 -131.08263 C 440.4789 -137.5086 428.77018 -142.71666 414.32664 -142.71666 C 399.8831 -142.71666 388.17436 -137.5086 388.17436 -131.08263 L 388.17436 -87.85666 M 440.4789 -87.85666 C 440.4789 -94.28265 428.77018 -99.49068 414.32664 -99.49068 C 399.8831 -99.49068 388.17436 -94.28265 388.17436 -87.85666 C 388.17436 -81.4232 399.8831 -76.21518 414.32664 -76.21518 C 428.77018 -76.21518 440.4789 -81.4232 440.4789 -87.85666 Z " fill="#f8be8c"/>
<path transform="matrix(1,0,0,-1,-39.776,-23.710999)" stroke-width=".3985" stroke-linecap="butt" stroke-miterlimit="10" stroke-linejoin="miter" fill="none" stroke="#ff8500" d="M 440.4789 -87.85666 L 440.4789 -131.08263 C 440.4789 -137.5086 428.77018 -142.71666 414.32664 -142.71666 C 399.8831 -142.71666 388.17436 -137.5086 388.17436 -131.08263 L 388.17436 -87.85666 M 440.4789 -87.85666 C 440.4789 -94.28265 428.77018 -99.49068 414.32664 -99.49068 C 399.8831 -99.49068 388.17436 -94.28265 388.17436 -87.85666 C 388.17436 -81.4232 399.8831 -76.21518 414.32664 -76.21518 C 428.77018 -76.21518 440.4789 -81.4232 440.4789 -87.85666 Z "/>
<path transform="matrix(1,0,0,-1,-39.776,-23.710999)" d="M 444.96214 -92.3399 L 444.96214 -135.56587 C 444.96214 -141.99185 433.2534 -147.1999 418.80989 -147.1999 C 404.36634 -147.1999 392.65763 -141.99185 392.65763 -135.56587 L 392.65763 -92.3399 M 444.96214 -92.3399 C 444.96214 -98.7659 433.2534 -103.97392 418.80989 -103.97392 C 404.36634 -103.97392 392.65763 -98.7659 392.65763 -92.3399 C 392.65763 -85.90645 404.36634 -80.69843 418.80989 -80.69843 C 433.2534 -80.69843 444.96214 -85.90645 444.96214 -92.3399 Z " fill="#f8be8c"/>
<path transform="matrix(1,0,0,-1,-39.776,-23.710999)" stroke-width=".3985" stroke-linecap="butt" stroke-miterlimit="10" stroke-linejoin="miter" fill="none" stroke="#ff8500" d="M 444.96214 -92.3399 L 444.96214 -135.56587 C 444.96214 -141.99185 433.2534 -147.1999 418.80989 -147.1999 C 404.36634 -147.1999 392.65763 -141.99185 392.65763 -135.56587 L 392.65763 -92.3399 M 444.96214 -92.3399 C 444.96214 -98.7659 433.2534 -103.97392 418.80989 -103.97392 C 404.36634 -103.97392 392.65763 -98.7659 392.65763 -92.3399 C 392.65763 -85.90645 404.36634 -80.69843 418.80989 -80.69843 C 433.2534 -80.69843 444.96214 -85.90645 444.96214 -92.3399 Z "/>
<path transform="matrix(1,0,0,-1,-39.776,-23.710999)" d="M 448.69819 -96.06848 L 448.69819 -139.30191 C 448.69819 -145.72789 436.98945 -150.93595 422.5459 -150.93595 C 408.10237 -150.93595 396.39366 -145.72789 396.39366 -139.30191 L 396.39366 -96.06848 M 448.69819 -96.06848 C 448.69819 -102.50194 436.98945 -107.70996 422.5459 -107.70996 C 408.10237 -107.70996 396.39366 -102.50194 396.39366 -96.06848 C 396.39366 -89.64249 408.10237 -84.43446 422.5459 -84.43446 C 436.98945 -84.43446 448.69819 -89.64249 448.69819 -96.06848 Z " fill="#f8be8c"/>
<path transform="matrix(1,0,0,-1,-39.776,-23.710999)" stroke-width=".3985" stroke-linecap="butt" stroke-miterlimit="10" stroke-linejoin="miter" fill="none" stroke="#ff8500" d="M 448.69819 -96.06848 L 448.69819 -139.30191 C 448.69819 -145.72789 436.98945 -150.93595 422.5459 -150.93595 C 408.10237 -150.93595 396.39366 -145.72789 396.39366 -139.30191 L 396.39366 -96.06848 M 448.69819 -96.06848 C 448.69819 -102.50194 436.98945 -107.70996 422.5459 -107.70996 C 408.10237 -107.70996 396.39366 -102.50194 396.39366 -96.06848 C 396.39366 -89.64249 408.10237 -84.43446 422.5459 -84.43446 C 436.98945 -84.43446 448.69819 -89.64249 448.69819 -96.06848 Z "/>
<path transform="matrix(1,0,0,-1,-39.776,-23.710999)" stroke-width=".3985" stroke-linecap="butt" stroke-miterlimit="10" stroke-linejoin="miter" fill="none" stroke="#000000" d="M 131.50855 -32.12993 "/>
<text xml:space="preserve" transform="matrix(1 0 -0 1 0 263.606)" font-size="9.9626" font-family="CMR10"><tspan y="-247.323" x="92.677 100.49764 103.26724 107.14269 113.369319 118.35062">GitLab</tspan></text>
<path transform="matrix(1,0,0,-1,-39.776,-23.710999)" stroke-width=".3985" stroke-linecap="butt" stroke-miterlimit="10" stroke-linejoin="miter" fill="none" stroke="#000000" d="M 59.0294 -118.0588 "/>
<text xml:space="preserve" transform="matrix(1 0 -0 1 -.0000019073487 263.60603)" font-size="9.9626" font-family="CMR10"><tspan y="-161.395" x="20.199 24.622395 29.603695 35.142904 40.68211">con&#xfb01;g</tspan></text>
<path transform="matrix(1,0,0,-1,-39.776,-23.710999)" stroke-width=".3985" stroke-linecap="butt" stroke-miterlimit="10" stroke-linejoin="miter" fill="none" stroke="#000000" d="M 138.23342 -118.0588 "/>
<text xml:space="preserve" transform="matrix(1 0 -0 1 -.0000076293949 263.60603)" font-size="9.9626" font-family="CMR10"><tspan y="-161.395" x="99.402 102.1716 107.1529 112.1342">logs</tspan></text>
<path transform="matrix(1,0,0,-1,-39.776,-23.710999)" stroke-width=".3985" stroke-linecap="butt" stroke-miterlimit="10" stroke-linejoin="miter" fill="none" stroke="#000000" d="M 212.95418 -118.0588 "/>
<text xml:space="preserve" transform="matrix(1 0 -0 1 0 263.60603)" font-size="9.9626" font-family="CMR10"><tspan y="-161.395" x="174.122 179.6612 184.64249 188.51795">data</tspan></text>
<path transform="matrix(1,0,0,-1,-39.776,-23.710999)" stroke-width=".3985" stroke-linecap="butt" stroke-miterlimit="10" stroke-linejoin="miter" fill="none" stroke="#000000" d="M 309.34397 -33.62434 "/>
<text xml:space="preserve" transform="matrix(1 0 -0 1 0 263.60603)" font-size="9.9626" font-family="CMR10"><tspan y="-248.457" x="270.511 274.9344 278.83973 283.821">cron</tspan></text>
<path transform="matrix(1,0,0,-1,-39.776,-23.710999)" stroke-width=".3985" stroke-linecap="butt" stroke-miterlimit="10" stroke-linejoin="miter" fill="none" stroke="#000000" d="M 302.6191 -105.35628 "/>
<text xml:space="preserve" transform="matrix(1 0 -0 1 0 263.606)" font-size="9.9626" font-family="CMR10"><tspan y="-174.097" x="266.029 271.5682 276.5495 280.69395 285.9542 291.4934">backup</tspan><tspan y="-162.142" x="269.073 274.0543 276.82389 280.69935 283.46894 288.45024">gitlab</tspan></text>
<path transform="matrix(1,0,0,-1,-39.776,-23.710999)" stroke-width=".3985" stroke-linecap="butt" stroke-miterlimit="10" stroke-linejoin="miter" fill="none" stroke="#000000" d="M 402.74494 -32.87714 "/>
<text xml:space="preserve" transform="matrix(1 0 -0 1 0 263.60603)" font-size="9.9626" font-family="CMR10"><tspan y="-246.686" x="363.91 369.44923 375.9548 383.1478">SFTP</tspan></text>
<path transform="matrix(1,0,0,-1,-39.776,-23.710999)" stroke-width=".3985" stroke-linecap="butt" stroke-miterlimit="10" stroke-linejoin="miter" fill="none" stroke="#000000" d="M 416.94187 -118.0588 "/>
<text xml:space="preserve" transform="matrix(1 0 -0 1 0 263.60603)" font-size="9.9626" font-family="CMR10"><tspan y="-161.395" x="379.29 384.2713 387.0409">all</tspan></text>
<path transform="matrix(1,0,0,-1,-39.776,-23.710999)" stroke-width=".3985" stroke-linecap="butt" stroke-miterlimit="10" stroke-linejoin="miter" fill="none" stroke="#000000" d="M 198.01003 -251.06177 L 227.52472 -251.06177 L 227.52472 -266.00593 L 198.01003 -266.00593 Z "/>
<path transform="matrix(1,0,0,-1,-39.776,-23.710999)" stroke-width=".3985" stroke-linecap="butt" stroke-dasharray="4.48325,4.48325" stroke-miterlimit="10" stroke-linejoin="miter" fill="none" stroke="#000000" d="M 224.53589 -284.6861 L 200.62525 -284.6861 "/>
<path transform="matrix(1,0,0,-1,-39.776,-23.710999)" stroke-width=".3985" stroke-linecap="butt" stroke-miterlimit="10" stroke-linejoin="miter" fill="none" stroke="#000000" d="M 223.78868 -215.1958 L 223.78868 -234.6232 C 223.78868 -237.51488 218.8571 -239.85366 212.76737 -239.85366 C 206.67763 -239.85366 201.74607 -237.51488 201.74607 -234.6232 L 201.74607 -215.1958 M 223.78868 -215.1958 C 223.78868 -218.08748 218.8571 -220.42626 212.76737 -220.42626 C 206.67763 -220.42626 201.74607 -218.08748 201.74607 -215.1958 C 201.74607 -212.30411 206.67763 -209.96535 212.76737 -209.96535 C 218.8571 -209.96535 223.78868 -212.30411 223.78868 -215.1958 Z "/>
<path transform="matrix(1,0,0,-1,-39.776,-23.710999)" stroke-width=".3985" stroke-linecap="butt" stroke-miterlimit="10" stroke-linejoin="miter" fill="none" stroke="#000000" d="M 239.85366 -220.42626 "/>
<text xml:space="preserve" transform="matrix(1 0 -0 1 0 263.606)" font-size="9.9626" font-family="CMR10"><tspan y="-59.029" x="201.021 207.66606 212.64736 215.41696 220.95616 229.255 233.6784">Volumes</tspan></text>
<path transform="matrix(1,0,0,-1,-39.776,-23.710999)" stroke-width=".3985" stroke-linecap="butt" stroke-miterlimit="10" stroke-linejoin="miter" fill="none" stroke="#000000" d="M 239.85366 -251.06177 "/>
<text xml:space="preserve" transform="matrix(1 0 -0 1 0 263.606)" font-size="9.9626" font-family="CMR10"><tspan y="-28.504" x="201.021 208.21399 213.19528 218.45554 222.331 227.31229 230.0819 235.6211 240.0445 243.94983">Containers</tspan></text>
<path transform="matrix(1,0,0,-1,-39.776,-23.710999)" stroke-width=".3985" stroke-linecap="butt" stroke-miterlimit="10" stroke-linejoin="miter" fill="none" stroke="#000000" d="M 240.60086 -278.70845 "/>
<text xml:space="preserve" transform="matrix(1 0 -0 1 0 263.60603)" font-size="9.9626" font-family="CMR10"><tspan y="-.747" x="201.768 210.90372 215.88501 221.42421 226.68447 230.55992 234.98332 243.84008 250.48514 255.46643 258.23603 263.77525 272.0741 276.4975">MountedVolumes</tspan></text>
</g>
</svg>
